<svg width="12" height="36" viewBox="0 0 12 36" fill="none" xmlns="http://www.w3.org/2000/svg">
<path d="M8.56724 10.3046V1.49626C8.56724 0.94209 8.12714 0.504589 7.56968 0.504589H4.43032C3.87286 0.504589 3.43277 0.94209 3.43277 1.49626V10.2754C1.40832 11.2379 0 13.2796 0 15.6421V21.1838V24.0129V34.1629C0 34.8921 0.586799 35.5046 1.34964 35.5046H10.6504C11.3839 35.5046 12 34.9213 12 34.1629V24.0129V21.1838V15.6421C12 13.3088 10.5917 11.2671 8.56724 10.3046ZM4.3423 1.49626C4.3423 1.43792 4.37164 1.40876 4.43032 1.40876H7.56968C7.62836 1.40876 7.6577 1.43792 7.6577 1.49626V2.66292H4.3423V1.49626ZM4.3423 3.56709H7.6577V9.95459C7.12959 9.80876 6.57213 9.72125 5.98533 9.72125C5.39853 9.72125 4.84108 9.80876 4.31296 9.95459V3.56709H4.3423ZM0.909537 21.6504H2.11247C2.11247 21.7379 2.08313 21.8546 2.08313 21.9421C2.08313 22.0004 2.08313 22.0296 2.05379 22.0879C2.05379 22.2629 2.02445 22.4379 2.02445 22.6129C2.02445 22.7879 2.02445 22.9629 2.05379 23.1379C2.05379 23.1963 2.05379 23.2254 2.08313 23.2838C2.08313 23.3713 2.11247 23.4879 2.11247 23.5754H0.909537V21.6504ZM11.0905 34.2213C11.0905 34.4546 10.8851 34.6588 10.6504 34.6588H1.34964C1.11492 34.6588 0.909537 34.4546 0.909537 34.2213V24.5088H2.28851C2.84596 26.4921 4.31296 27.8921 5.98533 27.8921C7.6577 27.8921 9.1247 26.4921 9.68215 24.5088H11.0611V34.2213H11.0905ZM2.96333 22.6421C2.96333 22.4963 2.96333 22.3796 2.96333 22.2338C2.96333 22.1754 2.96333 22.1463 2.96333 22.0879C2.96333 22.0004 2.99267 21.9129 2.99267 21.8254C2.99267 21.7671 2.99266 21.7088 3.022 21.6504C3.022 21.5921 3.05134 21.5046 3.05134 21.4463C3.05134 21.3879 3.08069 21.3296 3.08069 21.2713C3.4621 19.5213 4.6357 18.2379 5.98533 18.2379C7.33496 18.2379 8.50856 19.5213 8.88997 21.2713C8.88997 21.3296 8.91932 21.3879 8.91932 21.4463C8.91932 21.5046 8.94866 21.5921 8.94866 21.6504C8.94866 21.7088 8.978 21.7671 8.978 21.8254C8.978 21.9129 9.00734 22.0004 9.00734 22.0879C9.00734 22.1463 9.00734 22.1754 9.00734 22.2338C9.00734 22.3504 9.00734 22.4963 9.00734 22.6421C9.00734 22.7879 9.00734 22.9046 9.00734 23.0504C9.00734 23.1088 9.00734 23.1379 9.00734 23.1963C9.00734 23.2838 8.978 23.3713 8.978 23.4588C8.978 23.5171 8.978 23.5754 8.94866 23.6338C8.94866 23.6921 8.91932 23.7796 8.91932 23.8379C8.91932 23.8963 8.88997 23.9546 8.88997 24.0129C8.50856 25.7629 7.33496 27.0463 5.98533 27.0463C4.6357 27.0463 3.4621 25.7629 3.08069 24.0129C3.08069 23.9546 3.05134 23.8963 3.05134 23.8379C3.05134 23.7796 3.022 23.6921 3.022 23.6338C3.022 23.5754 2.99267 23.5171 2.99267 23.4588C2.99267 23.3713 2.96333 23.2838 2.96333 23.1963C2.96333 23.1379 2.96333 23.1088 2.96333 23.0504C2.96333 22.9046 2.96333 22.7588 2.96333 22.6421ZM11.0905 23.6046H9.88754C9.88754 23.5171 9.91687 23.4004 9.91687 23.3129C9.91687 23.2546 9.91687 23.2254 9.94621 23.1671C9.94621 22.9921 9.97555 22.8171 9.97555 22.6421C9.97555 22.4671 9.97555 22.2921 9.94621 22.1171C9.94621 22.0588 9.94621 22.0296 9.91687 21.9713C9.91687 21.8838 9.88754 21.7671 9.88754 21.6796H11.0905V23.6046ZM11.0905 20.7754H9.7115C9.15404 18.7921 7.68704 17.3921 6.01467 17.3921C4.3423 17.3921 2.8753 18.7921 2.31785 20.7754H0.938879V15.6713C0.938879 12.8713 3.22739 10.5963 6.04401 10.5963C8.86064 10.5963 11.1491 12.8713 11.1491 15.6713V20.7754H11.0905Z" fill="#FAA307"/>
</svg>
