<svg width="22" height="26" viewBox="0 0 22 26" fill="none" xmlns="http://www.w3.org/2000/svg">
<path d="M20.0452 8.56258H17.9766V6.63526C18.5885 6.11214 18.9672 5.34121 18.9672 4.48769C18.9672 2.89077 17.5687 1.56918 15.8789 1.56918C15.4418 1.56918 15.0048 1.65178 14.5969 1.84451C13.8102 1.01852 12.7031 0.550461 11.5085 0.550461C10.3431 0.550461 9.20683 1.01852 8.42017 1.84451C7.86659 1.51412 7.25475 1.32139 6.58463 1.32139C5.65229 1.32139 4.77823 1.67931 4.16638 2.31257C3.72935 2.06478 3.23404 1.92711 2.73874 1.92711C1.22369 1.92711 0 3.0835 0 4.51522C0 5.31368 0.378762 6.02954 0.990609 6.4976V23.3203C0.990609 24.5593 2.03949 25.5505 3.35059 25.5505H15.5584C16.8695 25.5505 17.9184 24.5593 17.9184 23.3203V20.8423H19.987C21.0941 20.8423 21.9973 19.9888 21.9973 18.9425V10.4348C22.0556 9.38857 21.1524 8.56258 20.0452 8.56258ZM17.0734 23.2652C17.0734 24.0361 16.4324 24.6419 15.6166 24.6419H3.40886C2.59306 24.6419 1.95208 24.0361 1.95208 23.2652V23.2102H17.0734V23.2652ZM17.0734 8.97557V20.3742V22.3566H1.95208V6.91059C2.2143 6.99319 2.47652 7.02072 2.76788 7.02072C3.26318 7.02072 3.75848 6.88306 4.19552 6.63526C4.8365 7.26852 5.71057 7.62645 6.61377 7.62645C7.25475 7.62645 7.89573 7.46125 8.44931 7.10332C8.82807 7.51632 9.29424 7.81918 9.81868 8.03945V10.545C9.81868 11.3985 10.5471 12.0868 11.4503 12.0868C12.3535 12.0868 13.0819 11.3985 13.0819 10.545V8.06698C13.6646 7.84672 14.1599 7.51632 14.5678 7.07579C14.9757 7.24099 15.4127 7.35112 15.8497 7.35112C16.2576 7.35112 16.6655 7.26852 17.0443 7.13086V8.97557H17.0734ZM15.908 6.52513C15.5001 6.52513 15.0922 6.415 14.7717 6.22227C14.5678 6.11214 14.3055 6.13967 14.189 6.3324C13.7811 6.85553 13.2275 7.21346 12.5866 7.40619C12.4117 7.46125 12.2661 7.62645 12.2661 7.81918V10.6C12.2661 10.9855 11.9456 11.3159 11.5085 11.3159C11.1006 11.3159 10.751 11.013 10.751 10.6V7.79165C10.751 7.59892 10.6345 7.46125 10.4597 7.37865C9.84781 7.15839 9.29423 6.80046 8.91547 6.30487C8.82807 6.22227 8.74066 6.13967 8.59498 6.13967C8.56585 6.13967 8.56585 6.13967 8.53671 6.13967C8.42017 6.13967 8.33276 6.1672 8.24535 6.2498C7.80832 6.60773 7.22561 6.80046 6.6429 6.80046C5.85624 6.80046 5.12785 6.44253 4.66169 5.8368C4.57428 5.72667 4.48687 5.67161 4.3412 5.67161C4.22465 5.64407 4.07898 5.69914 3.99157 5.78174C3.67108 6.05707 3.23404 6.22227 2.79701 6.22227C1.77727 6.22227 0.961474 5.45134 0.961474 4.48769C0.961474 3.52403 1.77727 2.7531 2.79701 2.7531C3.23404 2.7531 3.67108 2.9183 3.99157 3.19363C4.07898 3.27623 4.22465 3.30376 4.3412 3.30376C4.45774 3.30376 4.57428 3.22117 4.66169 3.13857C5.12785 2.53284 5.85624 2.17491 6.6429 2.17491C7.22561 2.17491 7.80832 2.36764 8.24535 2.72557C8.33276 2.80817 8.47844 2.8357 8.59498 2.8357C8.71153 2.8357 8.82807 2.7531 8.91547 2.67051C9.55645 1.87205 10.5179 1.40399 11.5668 1.40399C12.6157 1.40399 13.548 1.84451 14.189 2.64297C14.3347 2.80817 14.5969 2.86324 14.7717 2.7531C15.1213 2.56037 15.5292 2.45024 15.908 2.45024C17.1026 2.45024 18.0932 3.38636 18.0932 4.51522C18.0932 5.61654 17.1026 6.52513 15.908 6.52513ZM21.1524 18.915C21.1524 19.4932 20.6571 19.9613 20.0452 19.9613H17.9766V9.38857H20.0452C20.6571 9.38857 21.1524 9.85663 21.1524 10.4348V18.915Z" fill="#FAA307"/>
<path d="M9.52736 12.8853C9.26514 12.8853 9.09033 13.078 9.09033 13.2982V20.154C9.09033 20.4018 9.29428 20.567 9.52736 20.567C9.78958 20.567 9.96439 20.3742 9.96439 20.154V13.2982C9.96439 13.078 9.76045 12.8853 9.52736 12.8853Z" fill="#FAA307"/>
<path d="M5.68142 12.8853C5.4192 12.8853 5.24438 13.078 5.24438 13.2982V20.154C5.24438 20.4018 5.44833 20.567 5.68142 20.567C5.94364 20.567 6.11845 20.3742 6.11845 20.154V13.2982C6.14759 13.078 5.94364 12.8853 5.68142 12.8853Z" fill="#FAA307"/>
<path d="M13.344 12.8853C13.0818 12.8853 12.907 13.078 12.907 13.2982V20.154C12.907 20.4018 13.1109 20.567 13.344 20.567C13.6062 20.567 13.7811 20.3742 13.7811 20.154V13.2982C13.7811 13.078 13.5771 12.8853 13.344 12.8853Z" fill="#FAA307"/>
</svg>
