<svg width="30" height="40" viewBox="0 0 30 39" fill="none" xmlns="http://www.w3.org/2000/svg">
<path d="M14.1667 0.730736C11.4266 1.12545 8.96546 3.42196 8.01382 6.45408C6.98014 9.7015 7.7513 13.4692 9.90069 15.7298C10.3929 16.2502 11.1805 17.0755 11.6727 17.5599C12.6079 18.5287 13.1658 19.4258 13.8385 21.1482L14.2487 22.2247L13.7237 21.507C11.7055 18.762 9.24439 17.5599 6.58636 18.0084C0.335063 19.067 -2.19171 27.6968 2.22194 32.8999C5.3722 36.6317 10.7539 36.2549 13.5268 32.1284C13.9206 31.5363 14.2487 31.1237 14.2487 31.2134C14.2487 31.2851 13.9041 32.1105 13.494 33.0434C12.2634 35.8423 10.114 37.8159 7.43955 38.6591C6.4715 38.9641 6.61917 38.9821 14.905 38.9821L23.3549 39L22.0423 38.4976C20.3359 37.8697 19.2366 37.0803 18.006 35.627C17.0544 34.4787 16.0371 32.5231 15.8074 31.3749L15.6926 30.8366L16.0535 31.4646C16.9067 32.9716 18.3834 34.3352 19.8273 34.9452C24.7003 37.0444 30 32.8102 30 26.7998C30 22.3323 27.1943 18.6005 23.4041 18.0084C20.6805 17.5778 17.7763 19.1029 16.1684 21.7761C15.7418 22.4938 15.6926 22.5297 15.8074 22.0453C15.9715 21.2558 16.7755 19.4617 17.3661 18.5825C17.6615 18.1699 18.4162 17.4343 19.0561 16.9678C22.8299 14.2048 23.8307 8.67883 21.3204 4.42669C19.7617 1.78928 16.9396 0.336021 14.1667 0.730736Z" fill="black"/>
</svg>
