<svg width="22" height="29" viewBox="0 0 22 29" fill="none" xmlns="http://www.w3.org/2000/svg">
<path d="M21.3817 0.330276H17.7519C16.7946 0.330276 15.9768 1.072 15.8572 2.06096L15.5381 4.49216H7.89942C7.73987 3.23535 7.02187 2.08156 5.92493 1.44286C5.0075 0.907171 3.93051 0.762948 2.91336 1.05139C2.5743 1.13381 2.27514 1.27803 1.99592 1.44286C1.99592 1.44286 1.97598 1.44286 1.97598 1.46346C1.97598 1.46346 1.95602 1.46346 1.95602 1.48407C1.37764 1.83432 0.879041 2.34941 0.520044 2.96751C0.161048 3.60621 -0.0184459 4.32733 0.00149836 5.04845C0.00149836 5.06906 0.00149836 5.06905 0.00149836 5.08966C0.00149836 5.11026 0.00149836 5.11026 0.00149836 5.13086C0.0214426 5.43992 0.0613214 5.76957 0.141098 6.07862C0.420318 7.12939 1.07849 8.01534 1.99592 8.55103C2.59425 8.90129 3.27236 9.08672 3.97041 9.08672C4.30946 9.08672 4.64852 9.04551 4.96762 8.9631C5.86512 10.0345 7.00193 10.8998 8.27837 11.4973C8.23848 12.1154 8.35813 12.7541 8.61741 13.3722C9.17585 14.629 10.3127 15.4738 11.6489 15.6386V24.6217C11.4296 25.0337 10.3526 26.6408 7.38087 27.3207C7.14154 27.3825 6.96204 27.6092 6.98199 27.877C7.00193 28.1448 7.22132 28.3303 7.48059 28.3303H16.8145C17.0738 28.3303 17.2732 28.1242 17.3131 27.877C17.333 27.6092 17.1735 27.3825 16.9142 27.3207C13.9425 26.6408 12.8655 25.0337 12.6462 24.6217V15.6386C13.9824 15.4738 15.1192 14.629 15.6777 13.3722C15.9569 12.7541 16.0566 12.136 16.0167 11.4973C18.5496 10.3229 20.5042 8.03594 21.282 5.27509C21.3418 5.08966 21.302 4.88363 21.1823 4.7394C21.0626 4.57457 20.8831 4.49216 20.7036 4.49216H16.7547L17.0538 2.22579C17.0937 1.85493 17.4128 1.56648 17.7718 1.56648H21.4017C21.7407 1.56648 22 1.29864 22 0.948378C22 0.59812 21.7008 0.330276 21.3817 0.330276ZM6.90221 4.49216H4.828L5.84515 2.63786C6.40359 3.09113 6.78254 3.75044 6.90221 4.49216ZM3.19258 2.04036C3.79091 1.87553 4.40918 1.89613 4.98756 2.12277L3.97041 3.97708L2.93329 2.14337C3.01307 2.08156 3.09286 2.06096 3.19258 2.04036ZM1.3976 3.48259C1.57709 3.15294 1.79649 2.8851 2.07571 2.65846L3.15268 4.57457H1.03859C1.07848 4.18311 1.19815 3.81225 1.3976 3.48259ZM1.09843 5.81078C1.07849 5.74897 1.05853 5.66655 1.05853 5.60474H3.07292L2.09565 7.37663C1.61698 6.96457 1.27793 6.42888 1.09843 5.81078ZM2.95323 7.87112L3.57153 6.75853C3.77097 7.21181 4.03024 7.62388 4.28951 8.03594C3.8308 8.09775 3.37206 8.03594 2.95323 7.87112ZM5.10722 7.08819C4.84795 6.65551 4.60861 6.20224 4.42911 5.70776H15.3785L15.1192 7.66508C14.2616 7.62387 13.2445 7.50025 12.0877 7.1912C8.27836 6.24345 5.96483 6.79974 5.10722 7.08819ZM14.0423 27.3001H10.2329C11.1703 26.7438 11.7686 26.1257 12.1276 25.6724C12.5065 26.1257 13.1049 26.7438 14.0423 27.3001ZM15.1392 10.529C14.86 10.632 14.7004 10.941 14.7602 11.2295C14.8799 11.7652 14.8201 12.3008 14.5807 12.8365C14.142 13.8049 13.2046 14.423 12.1476 14.423C11.0706 14.423 10.1531 13.8255 9.71434 12.8365C9.47501 12.3008 9.41517 11.7652 9.53484 11.2295C9.59467 10.941 9.43514 10.632 9.15592 10.529C7.81965 9.99326 6.64292 9.10732 5.74543 7.97413C6.64292 7.72689 8.67725 7.39724 11.8683 8.20077C13.3442 8.57163 14.6206 8.71585 15.6777 8.71585C16.7148 8.71585 17.5524 8.59223 18.1707 8.42741C17.3131 9.35456 16.296 10.0757 15.1392 10.529ZM19.846 5.72836C19.6665 6.16103 19.4671 6.5731 19.2278 6.98517C19.1679 6.98517 19.0882 7.00577 19.0283 7.04698C19.0084 7.04698 18.0909 7.56206 16.2959 7.68568L16.5552 5.74897H19.846V5.72836Z" fill="#FAA307"/>
</svg>
