<svg width="50" height="50" viewBox="0 0 50 50" fill="none" xmlns="http://www.w3.org/2000/svg">
<path d="M50 25.4454C50 25.2969 50 25.1485 50 25C50 24.8515 50 24.7031 50 24.5546C47.4762 23.0998 47.3278 21.6152 49.4359 19.6853C49.3765 19.4181 49.3171 19.1211 49.2577 18.8539C46.4964 18.082 45.9917 16.7162 47.6544 14.3705C47.5356 14.1033 47.4169 13.8658 47.2981 13.6283C44.4478 13.5095 43.6758 12.3219 44.7744 9.67934C44.5962 9.4715 44.4477 9.23397 44.2696 9.02613C41.4489 9.53088 40.4691 8.55107 40.9739 5.7304C40.766 5.55226 40.5285 5.37411 40.3207 5.22565C37.6782 6.32423 36.4905 5.58195 36.3717 2.7019C36.1342 2.58314 35.867 2.46437 35.6295 2.34561C33.2839 4.00831 31.9477 3.50356 31.1461 0.74228C30.8789 0.682898 30.5819 0.623516 30.3147 0.564134C28.3551 2.7019 26.9002 2.52375 25.4454 0C25.2969 0 25.1485 0 25 0C24.8516 0 24.7031 0 24.5546 0C23.0998 2.52375 21.6152 2.67221 19.6853 0.564134C19.4181 0.623516 19.1211 0.682898 18.8539 0.74228C18.0523 3.50356 16.7161 4.00831 14.3705 2.34561C14.1033 2.46437 13.8658 2.58314 13.6283 2.7019C13.5095 5.55226 12.3218 6.32423 9.67933 5.22565C9.47149 5.4038 9.23396 5.55226 9.02612 5.7304C9.53087 8.55107 8.55107 9.53088 5.7304 9.02613C5.55225 9.23397 5.3741 9.4715 5.22565 9.67934C6.32422 12.3219 5.58194 13.5095 2.70189 13.6283C2.58313 13.8658 2.46436 14.133 2.3456 14.3705C4.0083 16.7162 3.50356 18.0523 0.74228 18.8539C0.682898 19.1211 0.623505 19.4181 0.564122 19.6853C2.70189 21.6449 2.52375 23.0998 0 24.5546C0 24.7031 0 24.8515 0 25C0 25.1485 0 25.2969 0 25.4454C2.52375 26.9002 2.6722 28.3848 0.564122 30.3147C0.623505 30.5819 0.682898 30.8789 0.74228 31.1461C3.50356 31.9477 4.0083 33.2839 2.3456 35.6295C2.46436 35.867 2.58313 36.1342 2.70189 36.3717C5.55225 36.4905 6.32422 37.6782 5.22565 40.3207C5.40379 40.5285 5.55225 40.766 5.7304 40.9739C8.55107 40.4691 9.53087 41.4489 9.02612 44.2696C9.23396 44.4477 9.47149 44.6259 9.67933 44.7744C12.3218 43.6758 13.5095 44.4181 13.6283 47.2981C13.8658 47.4169 14.133 47.5356 14.3705 47.6544C16.7161 45.9917 18.0523 46.4964 18.8539 49.2577C19.1211 49.3171 19.4181 49.3765 19.6853 49.4359C21.6449 47.2981 23.0998 47.4762 24.5546 50C24.7031 50 24.8516 50 25 50C25.1485 50 25.2969 50 25.4454 50C26.9002 47.4762 28.3848 47.3278 30.3147 49.4359C30.5819 49.3765 30.8789 49.3171 31.1461 49.2577C31.918 46.4964 33.2839 45.9917 35.6295 47.6544C35.867 47.5356 36.1342 47.4169 36.3717 47.2981C36.4905 44.4477 37.6782 43.6758 40.3207 44.7744C40.5285 44.5962 40.766 44.4477 40.9739 44.2696C40.4691 41.4489 41.4489 40.4691 44.2696 40.9739C44.4477 40.766 44.6259 40.5285 44.7744 40.3207C43.6758 37.6782 44.4181 36.4905 47.2981 36.3717C47.4169 36.1342 47.5356 35.867 47.6544 35.6295C45.9917 33.2839 46.4964 31.9477 49.2577 31.1461C49.3171 30.8789 49.3765 30.5819 49.4359 30.3147C47.2981 28.3848 47.4762 26.9002 50 25.4454Z" fill="#262626"/>
<path d="M46.2292 25C46.2292 36.728 36.6984 46.2589 24.9703 46.2589C13.2423 46.2589 3.71143 36.728 3.71143 25C3.71143 13.272 13.2423 3.74109 24.9703 3.74109C36.6984 3.74109 46.2292 13.2423 46.2292 25Z" fill="white"/>
<path d="M24.9702 45.5166C13.6579 45.5166 4.45361 36.3123 4.45361 24.9703C4.45361 13.6579 13.6579 4.42395 24.9702 4.42395C36.2826 4.42395 45.5165 13.6282 45.5165 24.9703C45.4868 36.3123 36.2826 45.5166 24.9702 45.5166Z" fill="#262626"/>
</svg>
