<svg width="30" height="39" viewBox="0 0 30 39" fill="none" xmlns="http://www.w3.org/2000/svg">
<path d="M6.51207 0.844158C6.03547 0.918472 5.19733 1.23432 4.62213 1.55016C0.628619 3.68678 -1.11341 9.52066 0.743659 14.5556C1.68041 17.1196 3.11018 19.3119 7.03796 24.254C12.3462 30.9239 14.1868 34.2496 14.8113 38.2813C14.9428 39.1545 14.9592 39.1731 15.0743 38.6529C16.0932 33.5065 17.3422 31.2212 23.2914 23.6037C27.3506 18.4015 28.764 16.1163 29.5528 13.4037C31.1962 7.84853 28.123 1.6059 23.39 0.844158C19.9552 0.305359 16.5369 2.94361 15.3865 7.03104C15.2222 7.607 15.0414 8.09006 14.9757 8.09006C14.9264 8.09006 14.8113 7.81137 14.762 7.47694C14.3347 5.30317 12.3462 2.49771 10.5384 1.53159C9.76604 1.14142 7.81037 0.584045 7.44882 0.676945C7.39951 0.695522 6.98866 0.76984 6.51207 0.844158Z" fill="#9D0208"/>
</svg>
