<svg width="30" height="35" viewBox="0 0 30 35" fill="none" xmlns="http://www.w3.org/2000/svg">
<path d="M13.1137 3.30147C9.1598 9.01919 7.28171 11.1573 1.86161 16.0813L0 17.7658L1.77924 19.337C6.85338 23.8075 9.34102 26.6259 13.3114 32.4408L15.0577 35L17.0346 32.133C21.0214 26.3343 22.29 24.8604 26.9358 20.6166C28.6161 19.0616 30 17.7496 30 17.7011C30 17.6363 29.3575 17.0208 28.5667 16.3243C23.4761 11.87 20.7743 8.80862 16.9687 3.23668C16.0461 1.87608 15.2389 0.693665 15.173 0.628876C15.1071 0.54789 14.1845 1.74651 13.1137 3.30147Z" fill="#9D0208"/>
</svg>
