<svg width="131" height="195" viewBox="0 0 131 195" fill="none" xmlns="http://www.w3.org/2000/svg">
<path fill-rule="evenodd" clip-rule="evenodd" d="M98.3408 78.847L107.984 69.0963H80.3698L75.5484 73.9716L81.2464 78.847H98.3408ZM34.3466 77.5173L26.0186 69.0964H52.7558L67.6585 83.2791V113.861L80.808 105.44L113.682 120.952V148.874L103.601 158.624V134.248L97.9022 132.475V165.716L85.1911 177.683V126.713L66.3437 117.849L46.6194 125.827V177.683L36.0999 166.602V129.816L29.9635 133.362L29.5252 158.624L20.3205 148.874V121.395L51.8793 106.326V77.5173H34.3466ZM52.7558 131.589H63.7138V194.081L52.7558 183.887V131.589ZM80.8079 131.589H69.4119V194.081L80.8079 181.671V131.589Z" fill="black"/>
<path d="M109.192 42L125 7.43063L86.3579 28.4964L66.5978 5L45.9594 28.4964L6 6.62048L24.0037 42H109.192Z" stroke="black" stroke-width="5" stroke-miterlimit="10"/>
<path d="M26.218 52.6368H107.308L105.864 60.5238H27.7681L26.218 52.6368Z" stroke="black" stroke-width="5" stroke-miterlimit="10"/>
</svg>
