<svg width="18" height="31" viewBox="0 0 18 31" fill="none" xmlns="http://www.w3.org/2000/svg">
<path d="M15.1166 12.8617C15.2706 12.3675 15.2286 11.9577 15.0047 11.6322C14.7387 11.2707 14.3048 11.1622 14.1509 11.1381C12.3313 10.3426 11.2535 9.4386 10.9456 8.45025C10.6656 7.57038 11.1275 6.94362 11.1415 6.90746C11.1695 6.85924 11.1835 6.81104 11.1835 6.76283C11.3515 6.69051 11.4914 6.58203 11.6034 6.4615C11.9953 6.02759 11.8274 5.4852 11.8274 5.46109C11.7994 5.35261 11.6734 5.2803 11.5474 5.2803H10.6656C10.2877 4.76202 10.7356 4.19553 10.7496 4.17142C11.2255 3.73751 11.5194 3.14691 11.5194 2.5081C11.5194 1.17021 10.2457 0.073391 8.69207 0.073391C7.13841 0.073391 5.8647 1.17021 5.8647 2.5081C5.8647 3.1228 6.13064 3.67725 6.56454 4.11116C6.57854 4.13526 6.57854 4.15937 6.60653 4.18347C6.60653 4.18347 7.08243 4.76202 6.69051 5.29235H6.01866C5.89269 5.29235 5.78072 5.36467 5.73872 5.47315C5.72473 5.49726 5.57076 6.03964 5.96267 6.47355C6.08865 6.61819 6.25661 6.72666 6.46656 6.81103C6.46656 6.84719 6.48056 6.88335 6.50855 6.91951C6.52255 6.94362 6.98445 7.57038 6.70451 8.4623C6.39658 9.45065 5.31882 10.3546 3.49922 11.1501C3.34526 11.1742 2.92535 11.2827 2.65941 11.6322C2.40747 11.9697 2.37947 12.4157 2.57543 12.9581C0.839813 13.5246 0 14.1393 0 14.8263V28.7355C0 28.8319 0.0559873 28.9163 0.153966 28.9525C0.251944 29.0007 2.72939 30.0252 8.80404 30.0734C8.81804 30.0734 8.81804 30.0734 8.83204 30.0734C8.88802 30.0734 8.94401 30.0734 9 30.0734C9.05599 30.0734 9.11198 30.0734 9.16796 30.0734C9.18196 30.0734 9.18196 30.0734 9.19596 30.0734C15.2706 30.0372 17.7341 29.0007 17.846 28.9525C17.944 28.9163 18 28.8199 18 28.7355V14.8384C18 14.1031 17.0622 13.4523 15.1166 12.8617ZM8.70607 0.579613C9.95179 0.579613 10.9596 1.44744 10.9596 2.52016C10.9596 3.59288 9.95179 4.46069 8.70607 4.46069C7.46034 4.46069 6.45257 3.59288 6.45257 2.52016C6.45257 1.44744 7.46034 0.579613 8.70607 0.579613ZM7.41835 4.67764C7.81026 4.84639 8.24417 4.94281 8.70607 4.94281C9.15397 4.94281 9.57387 4.84639 9.95179 4.6897C9.93779 4.88255 9.95179 5.08745 10.0358 5.2803H8.86003H8.73406H7.33437C7.43235 5.08745 7.44635 4.87049 7.41835 4.67764ZM6.2846 5.78653H8.73406H8.86003H11.3095C11.3095 5.895 11.2815 6.05169 11.1695 6.17222C11.0016 6.36507 10.6516 6.4615 10.1337 6.4615L8.80404 6.52176L7.44635 6.4615C6.94246 6.4615 6.60653 6.36507 6.43857 6.17222C6.3126 6.05169 6.2846 5.90706 6.2846 5.78653ZM3.03732 13.3438C3.55521 13.1871 4.14308 13.0304 4.80093 12.8737C4.9549 12.8375 5.05288 12.705 5.01089 12.5724C4.9689 12.4398 4.81493 12.3675 4.66096 12.3916C4.10109 12.5242 3.5832 12.6568 3.12131 12.7893C2.99533 12.4036 2.99533 12.1023 3.1493 11.8974C3.31726 11.6684 3.63919 11.6202 3.63919 11.6202C3.66719 11.6202 3.70918 11.6081 3.73717 11.5961C5.73872 10.7283 6.92846 9.70376 7.27838 8.55872C7.50233 7.84759 7.33437 7.28111 7.18041 6.94362C7.26439 6.94362 7.34837 6.95567 7.43235 6.95567L8.66407 7.01594C8.69207 7.01594 8.70606 7.02799 8.73406 7.02799H8.74806H8.79005H8.83204H8.84603C8.87403 7.02799 8.88802 7.02799 8.91602 7.01594L9.19596 7.00389C9.08398 7.90786 8.86003 10.885 10.3577 12.0059C10.7496 12.3313 11.2955 12.9219 11.2955 13.2112C11.2955 13.3076 11.3655 13.392 11.4635 13.4402L14.1229 14.5009C14.1369 14.5009 14.1509 14.5129 14.1649 14.5129C14.1788 14.5129 15.1446 14.7781 15.1446 15.2964V20.0332C15.1446 20.1658 15.2706 20.2863 15.4386 20.2863C15.5925 20.2863 15.7325 20.1779 15.7325 20.0332V15.2964C15.7325 14.4406 14.5428 14.0911 14.3608 14.0429L11.8554 13.0545C11.7154 12.488 10.9456 11.813 10.7636 11.6564C9.41991 10.656 9.69984 7.71501 9.78383 6.99183L10.1477 6.97978C10.2737 6.97978 10.3857 6.96772 10.4977 6.96772C10.3437 7.30521 10.1757 7.88375 10.3997 8.59488C10.7496 9.73992 11.9393 10.7524 13.9409 11.6322C13.9689 11.6443 13.9969 11.6564 14.0389 11.6564C14.0389 11.6564 14.3608 11.6925 14.5288 11.9336C14.6687 12.1144 14.6827 12.3916 14.5848 12.7291C14.2068 12.6206 13.8009 12.5242 13.367 12.4278C13.2131 12.3916 13.0591 12.476 13.0171 12.6085C12.9751 12.7411 13.0731 12.8737 13.2271 12.9099C17.0482 13.7897 17.4541 14.5732 17.4541 14.8625V20.8528C9.67185 24.2277 1.83359 21.564 0.615862 21.1059V14.8625C0.587869 14.5611 0.909797 14.0067 3.03732 13.3438ZM9.014 29.5792C3.80715 29.5672 1.23173 28.7958 0.587869 28.5788V24.6495C1.21773 24.9388 2.50544 25.445 4.46501 25.7343C4.479 25.7343 4.493 25.7343 4.521 25.7343C4.66096 25.7343 4.78694 25.6499 4.80093 25.5294C4.82893 25.3968 4.71695 25.2642 4.56298 25.2401C2.32348 24.9026 0.979782 24.2759 0.587869 24.071V23.6732C1.41369 24.0589 3.37325 24.7942 6.48056 24.9629H6.49456C6.64852 24.9629 6.77449 24.8665 6.78849 24.7339C6.80249 24.6013 6.67652 24.4808 6.52255 24.4687C3.07931 24.2879 1.07776 23.3599 0.587869 23.0947V22.5885C1.52566 23.0224 3.90513 23.9143 7.74028 23.9143C8.1042 23.9143 8.48212 23.9022 8.86003 23.8902C9.014 23.8781 9.13997 23.7697 9.13997 23.625C9.12597 23.4924 9 23.384 8.83204 23.384C3.96112 23.6009 1.17574 22.3112 0.573871 22.0099V21.6001C1.67963 21.9858 4.91291 22.9862 8.986 22.9862C11.5754 22.9862 14.4868 22.5764 17.4121 21.359V28.5547C16.7963 28.7958 14.2068 29.5672 9.014 29.5792Z" fill="#FAA307"/>
<path d="M9.06999 4.08705C9.12597 4.13526 9.20996 4.15937 9.27994 4.15937C9.34992 4.15937 9.41991 4.13526 9.47589 4.08705C10.1757 3.52056 10.5117 2.9179 10.4557 2.3273C10.3717 1.44743 9.4759 0.905048 9.4479 0.880941C9.32193 0.808623 9.13997 0.832729 9.04199 0.941207C8.95801 1.04968 8.986 1.20638 9.11198 1.29075C9.12597 1.29075 9.82582 1.72466 9.8818 2.37552C9.92379 2.82148 9.64386 3.2795 9.08398 3.73751C8.97201 3.83393 8.95801 3.99063 9.06999 4.08705Z" fill="#FAA307"/>
</svg>
