<svg width="30" height="40" viewBox="0 0 30 39" fill="none" xmlns="http://www.w3.org/2000/svg">
<path d="M14.7165 1.69346C14.4542 3.23611 13.2571 5.91252 11.9288 7.90124C11.3221 8.81196 9.37073 11.2468 7.61613 13.2912C2.90986 18.7556 1.49962 20.7257 0.597717 23.1605C-0.992904 27.4725 0.696106 32.5093 4.41849 34.5166C5.46797 35.0742 5.89432 35.1857 7.09139 35.2787C9.89547 35.4459 12.224 34.1449 13.7818 31.5057C14.5689 30.2046 14.4706 30.7994 13.5851 32.8625C12.306 35.8548 9.97746 38.0108 7.25537 38.7729C6.51745 38.9587 7.64892 38.9959 14.9133 38.9959C22.6696 39.0145 23.3584 38.9773 22.5384 38.7357C19.6196 37.8621 17.2582 35.4645 16.0776 32.1748C15.5364 30.6507 15.5364 30.3905 16.0776 31.3198C17.1271 33.1041 18.4553 34.275 20.2427 34.9441C21.1282 35.2973 21.5546 35.3344 22.8172 35.2787C24.1127 35.1857 24.4898 35.0928 25.5721 34.5166C27.2119 33.6245 28.4254 32.2491 29.1797 30.4463C30.2948 27.7513 30.2784 25.428 29.0977 22.733C28.1958 20.6514 27.0479 19.0715 22.8336 14.0718C17.7338 8.01276 16.094 5.37352 15.3561 2.08377C15.1921 1.34033 15.0281 0.708397 14.9789 0.671227C14.9297 0.615467 14.8149 1.08012 14.7165 1.69346Z" fill="black"/>
</svg>
