<svg width="22" height="31" viewBox="0 0 22 31" fill="none" xmlns="http://www.w3.org/2000/svg">
<path d="M5.26863 30.3119C7.66242 30.3119 10.5258 30.0286 10.5258 28.6944V21.9294C10.5258 20.3946 10.3082 18.8715 9.8615 17.3957L7.82277 10.5599C7.49062 9.43825 7.31881 8.26942 7.31881 7.10059V3.13364C7.6166 3.13364 7.85713 2.88571 7.85713 2.57874V0.866819C7.85713 0.559854 7.6166 0.31192 7.31881 0.31192H3.20699C2.9092 0.31192 2.66867 0.559854 2.66867 0.866819V2.57874C2.66867 2.88571 2.9092 3.13364 3.20699 3.13364V7.10059C3.20699 8.26942 3.03519 9.43825 2.70303 10.5599L0.664304 17.3957C0.229069 18.8715 0 20.3946 0 21.9294V28.6944C0.0229071 30.0286 2.87484 30.3119 5.26863 30.3119ZM3.7453 1.40991H6.79195V2.02384H3.75676V1.40991H3.7453ZM6.25363 3.12184V6.54569H4.28362V3.12184H6.25363ZM1.08809 21.9294C1.08809 20.5008 1.29425 19.0841 1.70657 17.7145L3.7453 10.8786C4.05455 9.82786 4.23781 8.74167 4.28362 7.64368H6.27654C6.32235 8.74167 6.50561 9.82786 6.81486 10.8786L8.85359 17.7145C9.26591 19.0841 9.47207 20.5008 9.47207 21.9294V28.6C9.16283 28.8597 7.69678 29.2021 5.28008 29.2021C2.87484 29.2021 1.39733 28.8479 1.08809 28.6V21.9294V21.9294Z" fill="#FAA307"/>
<path d="M14.2826 21.0439L16.0693 22.2127C16.3557 22.4016 16.6764 22.5315 17.02 22.6024V29.2139C16.4129 29.2139 15.7944 29.2021 15.1874 29.1785C14.9011 29.1667 14.6491 29.4028 14.6376 29.7098C14.6262 30.0168 14.8553 30.2647 15.153 30.2765C15.9433 30.3001 16.7451 30.3119 17.5468 30.3119C18.3486 30.3119 19.1503 30.3001 19.9406 30.2765C20.2384 30.2647 20.4675 30.0168 20.456 29.7098C20.4446 29.4028 20.2041 29.1667 19.9063 29.1785C19.2992 29.2021 18.6922 29.2021 18.0737 29.2139V22.6024C18.4059 22.5315 18.7266 22.4016 19.0244 22.2127L20.8111 21.0439C21.6472 20.5008 22.1054 19.4973 21.9794 18.4819L20.9944 10.4064C20.96 10.1348 20.7309 9.92231 20.4675 9.92231H14.6262C14.3627 9.92231 14.1337 10.123 14.0993 10.4064L13.1143 18.4819C12.9998 19.4855 13.4579 20.5008 14.2826 21.0439ZM20.2384 20.1112L18.4517 21.28C17.9134 21.6342 17.1803 21.6342 16.642 21.28L14.8553 20.1112C14.3742 19.7924 14.0993 19.2021 14.168 18.6118L14.7407 13.9011H20.3415L20.9142 18.6118C20.9944 19.2139 20.7195 19.7924 20.2384 20.1112ZM19.9979 11.0203L20.2155 12.8031H14.8896L15.1072 11.0203H19.9979Z" fill="#FAA307"/>
</svg>
